<svg xmlns="http://www.w3.org/2000/svg"><symbol viewBox="0 0 15 18" id="tooltip"><circle cx="7.5" cy="8.5" r="7.5" fill="#B8BEC9"/><path d="M6.542 10.726c0-.684.083-1.228.249-1.633.166-.405.468-.803.908-1.194.444-.396.74-.715.886-.96.146-.249.22-.51.22-.783 0-.825-.381-1.238-1.143-1.238-.361 0-.652.112-.871.337-.215.22-.328.525-.337.915H4.33c.01-.932.31-1.662.9-2.19.596-.527 1.407-.79 2.432-.79 1.035 0 1.838.25 2.41.754.571.498.857 1.203.857 2.117 0 .415-.093.808-.279 1.179-.185.366-.51.774-.974 1.223l-.593.564a2.009 2.009 0 00-.637 1.252l-.03.447H6.541zm-.213 2.249c0-.327.11-.596.33-.806.224-.215.51-.322.857-.322.346 0 .63.107.85.322.224.21.336.479.336.806 0 .322-.11.588-.33.798-.214.21-.5.315-.856.315-.357 0-.645-.105-.865-.315a1.069 1.069 0 01-.322-.798z" fill="#fff"/></symbol></svg>