<svg width="66" height="15" fill="none" xmlns="http://www.w3.org/2000/svg"><g clip-path="url(#clip0_0_19)"><path d="M12.974 2.646l-4.46 10.677H5.541L3.38 4.81c0-.406-.27-.811-.676-.946C1.893 3.457.946 3.187 0 2.917v-.27h4.73c.676 0 1.217.54 1.217 1.08L7.163 9.81 10 2.511h2.973v.135zM24.327 9.81c0-2.838-3.92-2.973-3.92-4.19 0-.405.406-.81 1.217-.945.946-.136 1.892.135 2.703.54l.405-2.297c-.81-.27-1.757-.406-2.567-.541-2.703 0-4.596 1.487-4.73 3.514 0 1.487 1.35 2.433 2.432 2.838 1.081.405 1.487.81 1.487 1.351 0 .676-.811 1.082-1.622 1.082-.946 0-2.027-.27-2.838-.676l-.54 2.298c.945.405 2.026.54 3.108.54 2.973.135 4.865-1.216 4.865-3.514zm7.163 3.514h2.568L31.895 2.646h-2.297c-.54 0-.946.27-1.217.811l-4.19 9.866h2.839l.54-1.622h3.65l.27 1.622zM28.38 9.54l1.487-4.055.81 3.92-2.297.135zM16.894 2.646l-2.298 10.677h-2.703l2.298-10.677h2.703z" fill="#1434CB"/><g clip-path="url(#clip1_0_19)"><path d="M57.806 2.281H52.08v10.29h5.727V2.282z" fill="#FF5F00"/><path d="M52.445 7.427a6.534 6.534 0 012.5-5.145 6.544 6.544 0 100 10.29 6.534 6.534 0 01-2.5-5.145z" fill="#EB001B"/><path d="M65.534 7.427a6.544 6.544 0 01-10.589 5.146 6.545 6.545 0 000-10.291 6.544 6.544 0 0110.589 5.145zm-.625 4.056v-.21h.085v-.044h-.217v.043h.085v.21h.047zm.42 0v-.254h-.067l-.076.174-.076-.174h-.067v.254h.047v-.192l.072.165h.048l.072-.165v.192h.047z" fill="#F79E1B"/></g></g><defs><clipPath id="clip0_0_19"><path fill="#fff" d="M0 0h66v15H0z"/></clipPath><clipPath id="clip1_0_19"><path fill="#fff" transform="translate(43.469)" d="M0 0h22.059v15H0z"/></clipPath></defs></svg>