<svg xmlns="http://www.w3.org/2000/svg">
    <symbol viewBox="0 0 15 18" id="tooltip">
        <circle cx="7.5" cy="8.5" r="7.5" fill="#B8BEC9"/>
        <path d="M6.5415 10.7261C6.5415 10.0425 6.62451 9.49805 6.79053 9.09277C6.95654 8.6875 7.25928 8.28955 7.69873 7.89893C8.14307 7.50342 8.43848 7.18359 8.58496 6.93945C8.73145 6.69043 8.80469 6.4292 8.80469 6.15576C8.80469 5.33057 8.42383 4.91797 7.66211 4.91797C7.30078 4.91797 7.01025 5.03027 6.79053 5.25488C6.57568 5.47461 6.46338 5.77979 6.45361 6.17041H4.32959C4.33936 5.23779 4.63965 4.50781 5.23047 3.98047C5.82617 3.45312 6.63672 3.18945 7.66211 3.18945C8.69727 3.18945 9.50049 3.44092 10.0718 3.94385C10.6431 4.44189 10.9287 5.14746 10.9287 6.06055C10.9287 6.47559 10.8359 6.86865 10.6504 7.23975C10.4648 7.60596 10.1401 8.01367 9.67627 8.46289L9.08301 9.02686C8.71191 9.3833 8.49951 9.80078 8.4458 10.2793L8.4165 10.7261H6.5415ZM6.3291 12.9746C6.3291 12.6475 6.43896 12.3789 6.65869 12.1689C6.8833 11.9541 7.16895 11.8467 7.51562 11.8467C7.8623 11.8467 8.14551 11.9541 8.36523 12.1689C8.58984 12.3789 8.70215 12.6475 8.70215 12.9746C8.70215 13.2969 8.59229 13.563 8.37256 13.7729C8.15771 13.9829 7.87207 14.0879 7.51562 14.0879C7.15918 14.0879 6.87109 13.9829 6.65137 13.7729C6.43652 13.563 6.3291 13.2969 6.3291 12.9746Z" fill="white"/>
    </symbol>
</svg>