<svg width="66" height="15" viewBox="0 0 66 15" fill="none" xmlns="http://www.w3.org/2000/svg">
<g clip-path="url(#clip0_0_19)">
<path d="M12.9744 2.64628L8.51442 13.3231H5.54113L3.37874 4.80867C3.37874 4.40322 3.10844 3.99777 2.70299 3.86262C1.89209 3.45717 0.946047 3.18687 0 2.91658V2.64628H4.73023C5.40598 2.64628 5.94658 3.18687 5.94658 3.72747L7.16293 9.8092L10.0011 2.51113H12.9744V2.64628ZM24.3269 9.8092C24.3269 6.97106 20.4076 6.83591 20.4076 5.61957C20.4076 5.21412 20.813 4.80867 21.6239 4.67352C22.57 4.53837 23.516 4.80867 24.3269 5.21412L24.7324 2.91658C23.9215 2.64628 22.9754 2.51113 22.1645 2.37598C19.4615 2.37598 17.5694 3.86262 17.4343 5.88986C17.4343 7.37651 18.7858 8.32256 19.867 8.728C20.9482 9.13345 21.3536 9.5389 21.3536 10.0795C21.3536 10.7552 20.5427 11.1607 19.7318 11.1607C18.7858 11.1607 17.7046 10.8904 16.8937 10.4849L16.3531 12.7825C17.2991 13.1879 18.3803 13.3231 19.4615 13.3231C22.4348 13.4582 24.3269 12.1067 24.3269 9.8092ZM31.4898 13.3231H34.0577L31.8953 2.64628H29.5977C29.0571 2.64628 28.6517 2.91657 28.3814 3.45717L24.1918 13.3231H27.0299L27.5705 11.7013H31.2195L31.4898 13.3231ZM28.3814 9.5389L29.868 5.48442L30.6789 9.40375L28.3814 9.5389ZM16.8937 2.64628L14.5961 13.3231H11.8932L14.1907 2.64628H16.8937Z" fill="#1434CB"/>
<g clip-path="url(#clip1_0_19)">
<path d="M57.8065 2.28125H52.0801V12.5718H57.8065V2.28125Z" fill="#FF5F00"/>
<path d="M52.4447 7.42733C52.4438 6.43627 52.6684 5.458 53.1014 4.56656C53.5345 3.67513 54.1647 2.89391 54.9443 2.28203C53.9789 1.52317 52.8194 1.05124 51.5984 0.92019C50.3774 0.789141 49.1442 1.00425 48.0397 1.54095C46.9352 2.07765 46.004 2.91427 45.3525 3.95519C44.701 4.99612 44.3555 6.19934 44.3555 7.42733C44.3555 8.65533 44.701 9.85855 45.3525 10.8995C46.004 11.9404 46.9352 12.777 48.0397 13.3137C49.1442 13.8504 50.3774 14.0655 51.5984 13.9345C52.8194 13.8034 53.9789 13.3315 54.9443 12.5726C54.1647 11.9607 53.5345 11.1795 53.1014 10.2881C52.6684 9.39666 52.4438 8.41839 52.4447 7.42733Z" fill="#EB001B"/>
<path d="M65.5338 7.42733C65.5339 8.65531 65.1884 9.85852 64.537 10.8994C63.8855 11.9404 62.9543 12.777 61.8498 13.3137C60.7453 13.8504 59.5121 14.0655 58.2912 13.9345C57.0702 13.8034 55.9107 13.3315 54.9453 12.5726C55.7242 11.9601 56.354 11.1788 56.7869 10.2875C57.2199 9.3962 57.4449 8.41823 57.4449 7.42733C57.4449 6.43643 57.2199 5.45846 56.7869 4.56717C56.354 3.67587 55.7242 2.89452 54.9453 2.28203C55.9107 1.52316 57.0702 1.05124 58.2912 0.920188C59.5121 0.789141 60.7453 1.00426 61.8498 1.54097C62.9543 2.07767 63.8855 2.91429 64.537 3.95522C65.1884 4.99614 65.5339 6.19935 65.5338 7.42733Z" fill="#F79E1B"/>
<path d="M64.9086 11.4827V11.2721H64.9936V11.2291H64.7772V11.2721H64.8622V11.4827H64.9086ZM65.3287 11.4827V11.2287H65.2623L65.1861 11.4034L65.1098 11.2287H65.0434V11.4827H65.0902V11.2911L65.1618 11.4563H65.2103L65.2819 11.2907V11.4827H65.3287Z" fill="#F79E1B"/>
</g>
</g>
<defs>
<clipPath id="clip0_0_19">
<rect width="66" height="15" fill="white"/>
</clipPath>
<clipPath id="clip1_0_19">
<rect width="22.0591" height="15" fill="white" transform="translate(43.4688)"/>
</clipPath>
</defs>
</svg>
